<?xml version="1.0" encoding="utf-8"?>
<!-- Generator: Adobe Illustrator 13.0.0, SVG Export Plug-In . SVG Version: 6.00 Build 14948)  -->
<!DOCTYPE svg PUBLIC "-//W3C//DTD SVG 1.0//EN" "http://www.w3.org/TR/2001/REC-SVG-20010904/DTD/svg10.dtd">
<svg version="1.0" id="레이어_1" xmlns="http://www.w3.org/2000/svg" xmlns:xlink="http://www.w3.org/1999/xlink" x="0px"
	 y="0px" width="209.337px" height="56.693px" viewBox="0 0 209.337 56.693" enable-background="new 0 0 209.337 56.693"
	 xml:space="preserve">
<g>
	<g>
		<path fill="#FBB584" d="M23.083,29.063c-0.809-7.373,6.915-13.286,17.255-13.205c10.337,0.082,19.38,6.12,20.189,13.483
			c0.81,7.374-6.91,13.28-17.25,13.201C32.939,42.467,23.895,36.427,23.083,29.063 M62.449,31.349
			c-0.934-9.141-11.34-16.627-23.238-16.726c-11.906-0.098-20.793,7.233-19.857,16.37c0.934,9.14,11.339,16.628,23.239,16.728
			C54.494,47.816,63.387,40.487,62.449,31.349"/>
		<path fill="#F89B6C" d="M44.482,47.9c-5.857,6.133-15.271,6.637-21.012,1.137c-5.744-5.495-5.646-14.917,0.219-21.041
			c5.863-6.125,15.274-6.633,21.015-1.136C50.443,32.359,50.347,41.783,44.482,47.9 M22.766,27.803
			c-6.814,7.115-6.925,18.067-0.25,24.461c6.674,6.387,17.614,5.799,24.425-1.32c6.815-7.118,6.929-18.071,0.252-24.463
			C40.52,20.093,29.582,20.682,22.766,27.803"/>
		<path fill="#F37321" d="M23.389,4.876C35.582,0.309,47.637,4.93,50.315,15.197c2.683,10.275-5.029,22.308-17.22,26.872
			C20.901,46.644,8.844,42.019,6.167,31.75C3.481,21.48,11.198,9.449,23.389,4.876 M12.065,8.804
			C-0.583,18.817-3.802,33.332,4.872,41.214c8.676,7.886,25.963,6.156,38.615-3.858c12.649-10.012,15.872-24.521,7.192-32.409
			C41.999-2.938,24.713-1.213,12.065,8.804"/>
	</g>
	<polygon points="91.004,40.115 88.066,40.115 88.066,28.443 74.053,28.443 74.053,40.115 71.117,40.115 71.117,17.662 
		74.053,17.662 74.053,25.049 88.066,25.049 88.066,17.662 91.004,17.662 	"/>
	<path d="M126.839,23.222c2.152,0,3.829,0.651,5.031,1.945c1.202,1.3,1.806,2.604,1.806,5.071v9.875h-2.938V30.104
		c0-1.428-0.385-1.958-1.151-2.753c-0.763-0.8-1.777-1.203-3.037-1.203h-2.696c-1.26,0-2.272,0.403-3.039,1.203
		c-0.762,0.795-1.145,1.325-1.145,2.753v10.009h-2.936v-9.875c0-2.467,0.598-3.771,1.806-5.071c1.191-1.294,2.873-1.945,5.025-1.945
		H126.839z"/>
	<path d="M163.833,23.222v10.004c0,1.428-0.378,1.961-1.143,2.759c-0.77,0.797-1.777,1.199-3.04,1.199h-1.835
		c-1.256,0-2.274-0.402-3.033-1.199c-0.766-0.798-1.15-1.331-1.15-2.759V23.222h-3.077v10.004c0,1.428-0.383,1.961-1.148,2.759
		c-0.768,0.797-1.78,1.199-3.044,1.199h-1.825c-1.261,0-2.275-0.402-3.036-1.199c-0.768-0.798-1.151-1.331-1.151-2.759V23.222
		h-2.938v9.872c0,2.475,0.598,3.779,1.805,5.078c1.199,1.295,2.881,1.941,5.034,1.941h2.405c2.152,0,3.831-0.646,5.034-1.941
		c0.141-0.154,0.279-0.314,0.401-0.467c0.125,0.152,0.265,0.313,0.405,0.467c1.204,1.295,2.881,1.941,5.03,1.941h2.411
		c2.153,0,3.832-0.646,5.032-1.941c1.205-1.299,1.806-2.604,1.806-5.078v-9.872H163.833z"/>
	<path d="M185.94,25.161c-1.204-1.291-2.885-1.939-5.034-1.939h-3.273c-1.566,0-2.874,0.348-3.94,1.03V17.66h-2.954v22.453h2.998
		v-9.889c0-1.42,0.383-1.959,1.145-2.756c0.769-0.797,1.78-1.197,3.041-1.197h2.694c1.262,0,2.278,0.4,3.045,1.197
		c0.758,0.797,1.142,1.336,1.142,2.756v9.889h2.942v-9.872C187.745,27.769,187.14,26.465,185.94,25.161z"/>
	<path d="M208.283,25.645c-1.145-1.614-3.046-2.423-5.738-2.423h-9.59v2.927h9.347c0.922,0,1.951,0.084,2.771,0.54
		c0.854,0.492,1.078,1.523,1.078,2.368h-8.296c-2.143,0-3.669,0.286-4.578,0.868c-1.273,0.8-1.97,2.313-1.996,4.542
		c0,2.342,0.626,3.938,1.86,4.748c0.9,0.602,2.463,0.898,4.685,0.898h7.863c1.127-0.012,2.033-0.557,2.658-1.395
		c0.642-0.859,0.991-2.039,0.991-3.279c0-0.808,0-1.622,0-2.442v-3.874C209.239,27.868,208.963,26.612,208.283,25.645z
		 M205.375,36.477c-0.627,0.464-1.674,0.707-3.13,0.707h-4.221c-1.174,0-1.989-0.105-2.462-0.322
		c-0.832-0.343-1.248-1.124-1.263-2.209c0-1.157,0.431-1.931,1.316-2.336c0.53-0.248,1.344-0.328,2.442-0.328h5.084
		c1.996-0.015,3.018,0.719,3.099,2.298C206.241,35.263,205.943,36.045,205.375,36.477z"/>
	<path d="M111.86,25.645c-1.146-1.614-3.045-2.423-5.736-2.423h-9.592v2.927h9.346c0.924,0,1.952,0.084,2.772,0.54
		c0.854,0.492,1.078,1.523,1.078,2.368h-8.297c-2.142,0-3.669,0.286-4.578,0.868c-1.271,0.8-1.969,2.313-1.994,4.542
		c0,2.342,0.624,3.938,1.858,4.748c0.899,0.602,2.462,0.898,4.687,0.898h7.859c1.13-0.012,2.034-0.557,2.661-1.395
		c0.64-0.859,0.992-2.039,0.992-3.279c0-0.808,0-1.622,0-2.442v-3.874C112.816,27.868,112.542,26.612,111.86,25.645z
		 M108.952,36.477c-0.627,0.464-1.675,0.707-3.129,0.707h-4.221c-1.175,0-1.989-0.105-2.462-0.322
		c-0.832-0.343-1.249-1.124-1.264-2.209c0-1.157,0.432-1.931,1.316-2.336c0.53-0.248,1.345-0.328,2.443-0.328h5.083
		c1.997-0.015,3.019,0.719,3.1,2.298C109.819,35.263,109.521,36.045,108.952,36.477z"/>
</g>
</svg>
