<?xml version="1.0" standalone="no"?>
<!DOCTYPE svg PUBLIC "-//W3C//DTD SVG 20010904//EN"
 "http://www.w3.org/TR/2001/REC-SVG-20010904/DTD/svg10.dtd">
<svg version="1.0" xmlns="http://www.w3.org/2000/svg"
 width="500.000000pt" height="825.000000pt" viewBox="0 0 500.000000 825.000000"
 preserveAspectRatio="xMidYMid meet">

<g transform="translate(0.000000,825.000000) scale(0.100000,-0.100000)"
fill="#000000" stroke="none">
<path d="M3343 8234 c-48 -24 -239 -258 -422 -519 -35 -49 -65 -92 -67 -93 -1
-2 -76 15 -166 38 -107 28 -194 44 -254 47 -138 8 -191 -16 -201 -94 -6 -53
36 -117 121 -179 l66 -49 -57 -8 c-32 -4 -105 -17 -163 -29 -58 -11 -114 -22
-125 -24 -14 -2 -31 11 -61 49 -110 143 -299 237 -474 237 -260 0 -486 -189
-546 -456 -20 -93 -15 -260 10 -347 l18 -58 -69 -72 c-279 -295 -469 -710
-523 -1147 -13 -108 -13 -390 0 -500 54 -443 231 -844 527 -1193 64 -76 167
-174 233 -220 l25 -18 -31 -27 c-90 -77 -175 -220 -208 -348 -22 -84 -20 -120
5 -145 l22 -22 -31 -91 c-37 -111 -76 -264 -94 -371 -15 -95 -17 -512 -1 -596
l10 -57 -141 -4 c-124 -3 -145 -6 -177 -25 -20 -13 -40 -32 -45 -42 -9 -20
-10 -20 -49 -2 l-41 18 -42 149 c-87 303 -101 343 -128 360 -46 30 -217 -4
-249 -49 -23 -32 -20 -56 41 -316 l55 -240 -35 -52 c-22 -32 -36 -63 -36 -83
0 -17 16 -111 36 -209 l37 -178 -21 -38 c-39 -68 -23 -165 32 -209 l27 -20 13
-364 c16 -412 19 -427 99 -506 83 -81 35 -76 827 -82 643 -5 709 -7 755 -24
75 -26 234 -33 315 -12 171 44 288 181 340 397 23 98 42 306 35 382 -2 29 -7
85 -10 125 l-5 72 170 0 170 0 0 -152 c0 -432 102 -699 306 -799 54 -27 78
-33 157 -36 242 -12 448 98 549 292 85 163 116 351 125 751 l6 272 70 7 c177
17 266 96 331 294 64 195 90 329 105 544 17 236 -9 484 -76 712 -21 71 -37
146 -38 185 -1 36 -12 101 -24 145 -28 102 -129 308 -176 359 -20 21 -33 42
-28 45 4 4 44 37 89 74 45 36 120 107 167 157 297 311 480 677 554 1105 24
140 24 481 0 620 -53 304 -159 575 -316 811 -33 49 -59 89 -58 90 1 1 36 -7
77 -18 100 -26 208 -33 240 -16 38 20 54 57 46 104 -11 56 -138 177 -292 278
l-121 79 19 61 c11 34 47 158 80 276 97 341 90 386 -79 508 -332 239 -663 397
-1018 487 -116 29 -167 31 -212 9z m217 -125 c276 -74 577 -212 830 -381 210
-139 213 -142 213 -208 0 -45 -64 -313 -78 -329 -2 -2 -50 31 -107 72 -205
149 -443 278 -703 380 -141 56 -390 134 -500 157 -33 7 -64 17 -69 21 -9 8 88
138 191 257 65 74 64 74 223 31z m-926 -548 c294 -77 896 -296 1294 -472 165
-72 421 -205 552 -284 192 -116 374 -254 358 -270 -9 -10 -137 19 -272 62
-258 81 -1145 428 -1506 588 -357 158 -620 304 -695 385 l-30 33 90 -6 c50 -3
143 -19 209 -36z m-1013 -71 c84 -16 187 -70 257 -135 35 -32 59 -61 55 -65
-4 -4 -44 -19 -88 -35 -202 -69 -448 -201 -614 -327 -45 -34 -91 -69 -101 -76
-17 -12 -19 -9 -29 38 -57 265 90 530 330 594 65 18 119 19 190 6z m1170 -304
c297 -144 846 -370 1411 -581 l208 -78 59 -76 c93 -122 168 -243 231 -374 282
-594 244 -1274 -105 -1836 -162 -262 -453 -544 -680 -662 -44 -23 -132 -70
-195 -105 -184 -102 -431 -179 -700 -221 -160 -24 -510 -24 -670 0 -552 85
-1044 338 -1336 688 -234 281 -391 624 -460 1004 -21 119 -30 412 -15 544 57
522 304 984 691 1294 331 265 734 432 1175 486 172 21 172 21 386 -83z m-1402
-3710 c177 -130 303 -207 726 -446 160 -89 296 -167 303 -173 10 -8 18 -87 8
-87 -2 0 -23 7 -47 16 -134 47 -180 48 -192 4 -8 -32 23 -59 86 -75 31 -8 79
-26 106 -40 48 -24 49 -26 53 -73 l3 -50 -105 38 c-351 126 -731 285 -1047
440 -132 64 -223 114 -223 122 0 31 34 127 68 192 33 64 145 196 166 196 5 0
47 -29 95 -64z m2741 13 c22 -29 58 -88 80 -133 37 -77 90 -239 90 -275 0 -12
-62 -42 -242 -115 -340 -138 -530 -222 -777 -342 -118 -57 -215 -104 -216
-104 -1 0 2 21 6 48 4 26 8 53 8 59 1 17 102 67 177 88 32 10 65 22 72 27 20
17 14 56 -11 72 -19 13 -30 13 -72 2 -28 -7 -72 -23 -99 -34 -27 -12 -50 -22
-52 -22 -2 0 -4 22 -4 48 0 49 0 49 93 134 192 176 349 299 522 408 85 54 351
190 370 190 8 0 33 -23 55 -51z m-1859 -339 c93 -17 180 -23 349 -27 247 -6
408 8 598 51 57 12 99 20 95 16 -4 -4 -71 -63 -148 -132 l-140 -124 -95 9
c-64 6 -150 6 -265 -2 l-170 -12 -230 130 c-126 72 -237 134 -245 139 -8 5 17
1 56 -8 39 -10 127 -28 195 -40z m-970 -239 c101 -49 263 -122 359 -164 170
-72 758 -297 778 -297 27 0 16 -36 -33 -110 -106 -162 -171 -371 -199 -643 -6
-52 -4 -60 18 -80 76 -71 226 -117 375 -117 53 0 102 4 110 9 24 15 29 100 32
456 1 239 4 324 10 285 5 -30 8 -178 7 -328 -3 -297 -4 -292 53 -292 38 0 174
46 244 83 33 18 86 57 118 87 66 65 67 68 38 218 -23 120 -60 230 -107 323
-19 39 -34 73 -31 75 8 9 382 186 492 234 438 190 717 302 727 292 14 -14 64
-198 83 -302 22 -125 31 -436 16 -566 -25 -216 -96 -477 -150 -551 -37 -51
-90 -76 -172 -81 l-66 -4 -7 433 c-8 518 -20 716 -43 741 -20 23 -57 23 -79 1
-15 -15 -16 -31 -9 -133 11 -164 22 -1018 18 -1385 -4 -413 -24 -563 -98 -722
-79 -171 -214 -254 -420 -257 -91 -1 -105 2 -157 27 -156 77 -238 320 -238
710 l0 137 48 0 c58 0 85 23 80 66 -6 52 -21 54 -408 54 -391 0 -403 -2 -408
-56 -4 -45 19 -64 78 -64 l48 0 7 -76 c13 -133 0 -389 -24 -479 -57 -214 -151
-307 -326 -322 l-80 -6 28 36 c66 87 68 96 83 494 l13 365 24 19 c77 60 73
195 -6 253 -25 18 -46 21 -163 24 l-134 4 0 103 c0 122 -16 181 -69 251 -20
27 -60 65 -90 84 l-54 35 6 260 c6 262 21 408 51 494 22 61 20 88 -9 107 -70
46 -119 -61 -145 -316 -11 -109 -15 -716 -4 -743 10 -26 -15 -95 -43 -116 -21
-18 -40 -21 -113 -21 -103 0 -161 17 -208 63 -45 43 -56 67 -91 189 -59 206
-82 378 -82 613 0 170 16 325 47 450 23 93 75 245 83 245 5 0 91 -40 192 -89z
m1622 -68 l67 -6 0 -56 c0 -62 -22 -237 -40 -317 -11 -49 -13 -52 -48 -58 -72
-12 -329 -7 -340 7 -16 19 -32 170 -32 298 l0 118 53 5 c28 3 68 8 87 9 66 7
185 7 253 0z m105 -590 c39 -88 67 -179 82 -276 15 -90 12 -96 -75 -152 -40
-26 -152 -75 -170 -75 -2 0 -3 107 -3 238 0 132 -4 255 -7 274 l-7 36 64 10
c34 5 68 10 74 11 6 0 25 -29 42 -66z m-388 40 c8 -8 4 -682 -4 -690 -11 -11
-120 -6 -181 8 -51 12 -139 52 -149 67 -8 14 22 210 49 310 26 96 86 238 126
293 22 31 22 31 88 24 36 -4 68 -9 71 -12z m-1729 -489 c5 -15 8 -28 7 -29 -2
-1 -19 -10 -38 -20 -58 -29 -109 -75 -145 -128 -22 -33 -36 -46 -39 -36 -3 8
-21 57 -41 109 -19 52 -35 100 -35 107 0 19 18 21 153 22 l127 1 11 -26z
m-287 -342 c20 -54 36 -113 36 -130 l0 -32 -219 0 c-201 0 -220 2 -225 18 -16
55 -27 135 -19 142 8 7 355 98 379 99 7 1 28 -43 48 -97z m437 -32 c68 -70
176 -110 294 -110 30 0 55 -4 55 -10 0 -6 -83 -10 -230 -10 l-230 0 0 30 c0
47 45 140 68 140 2 0 22 -18 43 -40z m479 -100 c0 -16 -4 -30 -10 -30 -11 0
-14 43 -3 53 11 12 13 8 13 -23z m-1130 -292 c63 -41 234 -157 380 -258 146
-100 281 -189 300 -197 25 -11 43 -13 66 -5 17 5 154 94 305 198 420 290 602
406 611 389 17 -29 -13 -58 -182 -176 -96 -66 -302 -215 -456 -330 -184 -136
-290 -209 -306 -209 -15 0 -121 72 -303 208 -154 114 -360 263 -458 331 -172
120 -202 149 -182 180 6 11 11 8 225 -131z m1470 138 c0 -2 -30 -23 -67 -47
-38 -24 -178 -120 -313 -213 -328 -227 -326 -226 -374 -226 -36 0 -64 16 -231
132 -104 72 -266 182 -358 245 l-168 113 755 0 c416 0 756 -2 756 -4z"/>
<path d="M1346 6009 c-31 -25 -34 -61 -6 -89 19 -19 33 -20 404 -20 l385 0 20
27 c24 30 20 58 -11 86 -18 15 -52 17 -393 17 -362 0 -373 -1 -399 -21z"/>
<path d="M3225 6005 c-30 -29 -32 -58 -5 -85 19 -19 33 -20 404 -20 l385 0 20
27 c24 30 20 58 -11 86 -18 15 -52 17 -395 17 l-374 0 -24 -25z"/>
<path d="M1755 5600 c-54 -28 -78 -63 -82 -124 -8 -98 64 -171 160 -163 83 7
139 68 139 152 0 61 -28 105 -82 133 -55 27 -84 28 -135 2z"/>
<path d="M3542 5604 c-55 -28 -86 -78 -86 -139 -1 -84 55 -144 141 -152 56 -6
102 20 141 77 42 62 20 151 -50 203 -36 27 -105 32 -146 11z"/>
<path d="M2627 5175 c-22 -7 -49 -23 -62 -35 -19 -18 -30 -20 -67 -15 -24 4
-73 1 -108 -5 -136 -25 -238 -97 -292 -208 -29 -59 -33 -76 -32 -147 0 -66 5
-90 27 -136 97 -201 383 -281 585 -163 l42 25 43 -25 c235 -136 550 -7 595
244 35 193 -103 371 -317 410 -35 6 -86 8 -113 5 -43 -6 -52 -4 -73 17 -46 46
-151 61 -228 33z m-103 -185 c14 -5 26 -16 26 -23 0 -8 14 -33 30 -56 85 -117
207 -106 281 24 26 45 36 55 65 61 97 18 218 -31 271 -108 75 -113 41 -241
-84 -315 -34 -20 -63 -27 -119 -31 -87 -5 -140 11 -210 64 -53 41 -76 42 -116
9 -55 -47 -109 -68 -184 -73 -310 -20 -410 340 -122 439 59 20 123 24 162 9z"/>
</g>
</svg>
