<svg width="22" height="21" viewBox="0 0 22 21" fill="none" xmlns="http://www.w3.org/2000/svg">
<path fill-rule="evenodd" clip-rule="evenodd" d="M20.8182 9.68994C19.8523 14.1295 15.1524 17.4982 9.5 17.4982C8.68464 17.4982 7.88909 17.4281 7.1217 17.2948C8.67929 18.6459 10.9595 19.4982 13.5 19.4982C14.8976 19.4982 16.2165 19.2402 17.3796 18.7832C17.9455 18.5608 19.8344 19.1848 21.0146 19.6188C21.4108 19.7646 21.8201 19.3895 21.7114 18.9816C21.4075 17.8412 21.0071 16.0906 21.2727 15.633C21.7402 14.8276 22 13.9361 22 12.9982C22 11.7901 21.569 10.659 20.8182 9.68994Z" fill="#899A96"/>
<path d="M19 8C19 12.1421 14.7467 15.5 9.5 15.5C8.07102 15.5 6.71574 15.2509 5.5 14.8048C4.85423 14.5678 2.42216 15.2467 1.0178 15.6764C0.61212 15.8006 0.22655 15.397 0.36365 14.9955C0.77292 13.797 1.33908 11.8878 1 11.3531C0.3601 10.3441 0 9.2052 0 8C0 3.85786 4.25329 0.5 9.5 0.5C14.7467 0.5 19 3.85786 19 8Z" fill="#899A96"/>
</svg>
