<svg id="visual" viewBox="0 0 900 600" width="900" height="600" xmlns="http://www.w3.org/2000/svg" xmlns:xlink="http://www.w3.org/1999/xlink" version="1.1"><g stroke-width="1" stroke-linejoin="bevel"><path d="M436 269.1L430 173.4L373 255.1Z" fill="#277297" stroke="#277297"></path><path d="M430 173.4L361 183.4L373 255.1Z" fill="#246688" stroke="#246688"></path><path d="M436 269.1L537 263.1L430 173.4Z" fill="#15384f" stroke="#15384f"></path><path d="M285 261.1L351 338.9L373 255.1Z" fill="#277297" stroke="#277297"></path><path d="M373 255.1L351 338.9L436 269.1Z" fill="#1d4e6b" stroke="#1d4e6b"></path><path d="M436 269.1L449 350.9L537 263.1Z" fill="#0c2435" stroke="#0c2435"></path><path d="M351 338.9L449 350.9L436 269.1Z" fill="#081a28" stroke="#081a28"></path><path d="M361 183.4L285 261.1L373 255.1Z" fill="#277297" stroke="#277297"></path><path d="M430 173.4L359 99.7L361 183.4Z" fill="#205a7a" stroke="#205a7a"></path><path d="M361 183.4L258 158.4L285 261.1Z" fill="#00101c" stroke="#00101c"></path><path d="M455 80.7L359 99.7L430 173.4Z" fill="#205a7a" stroke="#205a7a"></path><path d="M537 263.1L549 165.4L430 173.4Z" fill="#19435d" stroke="#19435d"></path><path d="M523 95.7L455 80.7L430 173.4Z" fill="#0c2435" stroke="#0c2435"></path><path d="M549 165.4L523 95.7L430 173.4Z" fill="#246688" stroke="#246688"></path><path d="M359 99.7L258 158.4L361 183.4Z" fill="#0c2435" stroke="#0c2435"></path><path d="M449 350.9L541 352.9L537 263.1Z" fill="#277297" stroke="#277297"></path><path d="M537 263.1L634 185.4L549 165.4Z" fill="#081a28" stroke="#081a28"></path><path d="M285 261.1L268 334.9L351 338.9Z" fill="#19435d" stroke="#19435d"></path><path d="M351 338.9L361 441.6L449 350.9Z" fill="#246688" stroke="#246688"></path><path d="M190 270.1L268 334.9L285 261.1Z" fill="#1d4e6b" stroke="#1d4e6b"></path><path d="M350 0L277 67.7L359 99.7Z" fill="#19435d" stroke="#19435d"></path><path d="M359 99.7L277 67.7L258 158.4Z" fill="#081a28" stroke="#081a28"></path><path d="M172 68.7L196 181.4L258 158.4Z" fill="#0c2435" stroke="#0c2435"></path><path d="M258 158.4L196 181.4L285 261.1Z" fill="#246688" stroke="#246688"></path><path d="M643 271.1L634 185.4L537 263.1Z" fill="#277297" stroke="#277297"></path><path d="M549 165.4L625 83.7L523 95.7Z" fill="#19435d" stroke="#19435d"></path><path d="M549 0L438 0L455 80.7Z" fill="#297ea6" stroke="#297ea6"></path><path d="M455 80.7L438 0L359 99.7Z" fill="#112e42" stroke="#112e42"></path><path d="M549 0L455 80.7L523 95.7Z" fill="#297ea6" stroke="#297ea6"></path><path d="M288 416.6L361 441.6L351 338.9Z" fill="#112e42" stroke="#112e42"></path><path d="M449 350.9L465 446.6L541 352.9Z" fill="#112e42" stroke="#112e42"></path><path d="M196 181.4L190 270.1L285 261.1Z" fill="#081a28" stroke="#081a28"></path><path d="M268 334.9L288 416.6L351 338.9Z" fill="#112e42" stroke="#112e42"></path><path d="M361 441.6L465 446.6L449 350.9Z" fill="#19435d" stroke="#19435d"></path><path d="M195 339.9L288 416.6L268 334.9Z" fill="#0c2435" stroke="#0c2435"></path><path d="M438 0L350 0L359 99.7Z" fill="#277297" stroke="#277297"></path><path d="M635 351.9L643 271.1L541 352.9Z" fill="#15384f" stroke="#15384f"></path><path d="M541 352.9L643 271.1L537 263.1Z" fill="#00101c" stroke="#00101c"></path><path d="M465 446.6L545 430.6L541 352.9Z" fill="#0c2435" stroke="#0c2435"></path><path d="M190 270.1L195 339.9L268 334.9Z" fill="#0c2435" stroke="#0c2435"></path><path d="M711 171.4L625 83.7L634 185.4Z" fill="#205a7a" stroke="#205a7a"></path><path d="M634 185.4L625 83.7L549 165.4Z" fill="#1d4e6b" stroke="#1d4e6b"></path><path d="M545 430.6L635 351.9L541 352.9Z" fill="#00101c" stroke="#00101c"></path><path d="M350 0L285 0L277 67.7Z" fill="#081a28" stroke="#081a28"></path><path d="M277 67.7L172 68.7L258 158.4Z" fill="#19435d" stroke="#19435d"></path><path d="M625 83.7L549 0L523 95.7Z" fill="#081a28" stroke="#081a28"></path><path d="M361 441.6L368 501.3L465 446.6Z" fill="#00101c" stroke="#00101c"></path><path d="M465 446.6L534 495.3L545 430.6Z" fill="#19435d" stroke="#19435d"></path><path d="M271 522.3L368 501.3L361 441.6Z" fill="#1d4e6b" stroke="#1d4e6b"></path><path d="M271 522.3L361 441.6L288 416.6Z" fill="#277297" stroke="#277297"></path><path d="M195 0L172 68.7L277 67.7Z" fill="#277297" stroke="#277297"></path><path d="M196 181.4L79 259.1L190 270.1Z" fill="#277297" stroke="#277297"></path><path d="M91 337.9L161 422.6L195 339.9Z" fill="#246688" stroke="#246688"></path><path d="M368 501.3L456 509.3L465 446.6Z" fill="#297ea6" stroke="#297ea6"></path><path d="M545 430.6L648 434.6L635 351.9Z" fill="#277297" stroke="#277297"></path><path d="M456 509.3L534 495.3L465 446.6Z" fill="#205a7a" stroke="#205a7a"></path><path d="M643 271.1L711 171.4L634 185.4Z" fill="#00101c" stroke="#00101c"></path><path d="M625 83.7L629 0L549 0Z" fill="#205a7a" stroke="#205a7a"></path><path d="M720 271.1L711 171.4L643 271.1Z" fill="#15384f" stroke="#15384f"></path><path d="M732 70.7L629 0L625 83.7Z" fill="#297ea6" stroke="#297ea6"></path><path d="M733 340.9L643 271.1L635 351.9Z" fill="#112e42" stroke="#112e42"></path><path d="M733 340.9L720 271.1L643 271.1Z" fill="#277297" stroke="#277297"></path><path d="M285 0L195 0L277 67.7Z" fill="#112e42" stroke="#112e42"></path><path d="M617 503.3L648 434.6L545 430.6Z" fill="#00101c" stroke="#00101c"></path><path d="M91 337.9L195 339.9L190 270.1Z" fill="#205a7a" stroke="#205a7a"></path><path d="M195 339.9L161 422.6L288 416.6Z" fill="#112e42" stroke="#112e42"></path><path d="M163 502.3L271 522.3L288 416.6Z" fill="#1d4e6b" stroke="#1d4e6b"></path><path d="M368 501.3L430 600L456 509.3Z" fill="#297ea6" stroke="#297ea6"></path><path d="M75 190.4L196 181.4L87 75.7Z" fill="#15384f" stroke="#15384f"></path><path d="M75 190.4L79 259.1L196 181.4Z" fill="#0c2435" stroke="#0c2435"></path><path d="M87 75.7L196 181.4L172 68.7Z" fill="#246688" stroke="#246688"></path><path d="M648 434.6L733 340.9L635 351.9Z" fill="#19435d" stroke="#19435d"></path><path d="M790 156.4L732 70.7L711 171.4Z" fill="#246688" stroke="#246688"></path><path d="M79 259.1L91 337.9L190 270.1Z" fill="#297ea6" stroke="#297ea6"></path><path d="M534 495.3L617 503.3L545 430.6Z" fill="#112e42" stroke="#112e42"></path><path d="M648 434.6L720 446.6L733 340.9Z" fill="#15384f" stroke="#15384f"></path><path d="M543 600L617 503.3L534 495.3Z" fill="#112e42" stroke="#112e42"></path><path d="M543 600L534 495.3L456 509.3Z" fill="#081a28" stroke="#081a28"></path><path d="M794 238.1L711 171.4L720 271.1Z" fill="#15384f" stroke="#15384f"></path><path d="M711 171.4L732 70.7L625 83.7Z" fill="#15384f" stroke="#15384f"></path><path d="M104 0L87 75.7L172 68.7Z" fill="#205a7a" stroke="#205a7a"></path><path d="M0 353.9L100 416.6L91 337.9Z" fill="#246688" stroke="#246688"></path><path d="M91 337.9L100 416.6L161 422.6Z" fill="#00101c" stroke="#00101c"></path><path d="M161 422.6L163 502.3L288 416.6Z" fill="#00101c" stroke="#00101c"></path><path d="M99 508.3L163 502.3L161 422.6Z" fill="#277297" stroke="#277297"></path><path d="M372 600L368 501.3L271 522.3Z" fill="#0c2435" stroke="#0c2435"></path><path d="M372 600L430 600L368 501.3Z" fill="#112e42" stroke="#112e42"></path><path d="M278 600L372 600L271 522.3Z" fill="#15384f" stroke="#15384f"></path><path d="M712 497.3L720 446.6L648 434.6Z" fill="#00101c" stroke="#00101c"></path><path d="M810 356.9L794 238.1L733 340.9Z" fill="#15384f" stroke="#15384f"></path><path d="M733 340.9L794 238.1L720 271.1Z" fill="#00101c" stroke="#00101c"></path><path d="M195 0L104 0L172 68.7Z" fill="#1d4e6b" stroke="#1d4e6b"></path><path d="M794 238.1L790 156.4L711 171.4Z" fill="#081a28" stroke="#081a28"></path><path d="M732 70.7L729 0L629 0Z" fill="#0c2435" stroke="#0c2435"></path><path d="M817 0L729 0L732 70.7Z" fill="#15384f" stroke="#15384f"></path><path d="M617 503.3L712 497.3L648 434.6Z" fill="#205a7a" stroke="#205a7a"></path><path d="M430 600L543 600L456 509.3Z" fill="#205a7a" stroke="#205a7a"></path><path d="M174 600L278 600L271 522.3Z" fill="#081a28" stroke="#081a28"></path><path d="M624 600L712 497.3L617 503.3Z" fill="#277297" stroke="#277297"></path><path d="M815 418.6L810 356.9L733 340.9Z" fill="#1d4e6b" stroke="#1d4e6b"></path><path d="M0 94.7L75 190.4L87 75.7Z" fill="#205a7a" stroke="#205a7a"></path><path d="M0 94.7L0 180.4L75 190.4Z" fill="#15384f" stroke="#15384f"></path><path d="M75 190.4L0 180.4L79 259.1Z" fill="#00101c" stroke="#00101c"></path><path d="M79 259.1L0 276.1L91 337.9Z" fill="#081a28" stroke="#081a28"></path><path d="M0 180.4L0 276.1L79 259.1Z" fill="#112e42" stroke="#112e42"></path><path d="M815 418.6L733 340.9L720 446.6Z" fill="#246688" stroke="#246688"></path><path d="M900 178.4L820 83.7L790 156.4Z" fill="#297ea6" stroke="#297ea6"></path><path d="M100 416.6L99 508.3L161 422.6Z" fill="#297ea6" stroke="#297ea6"></path><path d="M163 502.3L174 600L271 522.3Z" fill="#0c2435" stroke="#0c2435"></path><path d="M0 432.6L99 508.3L100 416.6Z" fill="#246688" stroke="#246688"></path><path d="M900 178.4L790 156.4L794 238.1Z" fill="#205a7a" stroke="#205a7a"></path><path d="M790 156.4L820 83.7L732 70.7Z" fill="#00101c" stroke="#00101c"></path><path d="M543 600L624 600L617 503.3Z" fill="#19435d" stroke="#19435d"></path><path d="M0 0L0 94.7L87 75.7Z" fill="#205a7a" stroke="#205a7a"></path><path d="M0 276.1L0 353.9L91 337.9Z" fill="#205a7a" stroke="#205a7a"></path><path d="M99 508.3L174 600L163 502.3Z" fill="#15384f" stroke="#15384f"></path><path d="M804 495.3L815 418.6L720 446.6Z" fill="#0c2435" stroke="#0c2435"></path><path d="M810 356.9L900 266.1L794 238.1Z" fill="#00101c" stroke="#00101c"></path><path d="M804 495.3L720 446.6L712 497.3Z" fill="#081a28" stroke="#081a28"></path><path d="M820 83.7L817 0L732 70.7Z" fill="#112e42" stroke="#112e42"></path><path d="M0 353.9L0 432.6L100 416.6Z" fill="#1d4e6b" stroke="#1d4e6b"></path><path d="M99 508.3L83 600L174 600Z" fill="#19435d" stroke="#19435d"></path><path d="M104 0L0 0L87 75.7Z" fill="#15384f" stroke="#15384f"></path><path d="M726 600L804 495.3L712 497.3Z" fill="#19435d" stroke="#19435d"></path><path d="M900 335.9L810 356.9L900 423.6Z" fill="#246688" stroke="#246688"></path><path d="M900 335.9L900 266.1L810 356.9Z" fill="#277297" stroke="#277297"></path><path d="M820 83.7L900 79.7L817 0Z" fill="#15384f" stroke="#15384f"></path><path d="M900 266.1L900 178.4L794 238.1Z" fill="#205a7a" stroke="#205a7a"></path><path d="M624 600L726 600L712 497.3Z" fill="#277297" stroke="#277297"></path><path d="M900 423.6L810 356.9L815 418.6Z" fill="#297ea6" stroke="#297ea6"></path><path d="M0 521.3L83 600L99 508.3Z" fill="#205a7a" stroke="#205a7a"></path><path d="M900 178.4L900 79.7L820 83.7Z" fill="#205a7a" stroke="#205a7a"></path><path d="M0 432.6L0 521.3L99 508.3Z" fill="#1d4e6b" stroke="#1d4e6b"></path><path d="M900 498.3L900 423.6L815 418.6Z" fill="#081a28" stroke="#081a28"></path><path d="M900 498.3L815 418.6L804 495.3Z" fill="#297ea6" stroke="#297ea6"></path><path d="M900 79.7L900 0L817 0Z" fill="#297ea6" stroke="#297ea6"></path><path d="M726 600L803 600L804 495.3Z" fill="#246688" stroke="#246688"></path><path d="M803 600L900 498.3L804 495.3Z" fill="#246688" stroke="#246688"></path><path d="M0 521.3L0 600L83 600Z" fill="#19435d" stroke="#19435d"></path><path d="M803 600L900 600L900 498.3Z" fill="#246688" stroke="#246688"></path></g></svg>