<svg width="450" height="72" viewBox="0 0 450 72" fill="none" xmlns="http://www.w3.org/2000/svg">
<g clip-path="url(#clip0_136_7)">
<path d="M0.84751 69.8143V69.9143H0.94751H15.1841H15.2841V69.8143V44.0843H24.9741C32.4196 44.0843 38.5587 42.0286 42.838 38.371C47.1189 34.7121 49.5302 29.4571 49.5302 23.0786C49.5302 16.7001 47.1189 11.4451 42.838 7.78613C38.5587 4.12854 32.4196 2.07286 24.9741 2.07286H0.94751H0.84751V2.17286V69.8143ZM21.6518 37.4429H21.5518V37.4557H15.2841V8.71429H21.6518C25.7987 8.71429 29.0474 10.0246 31.2604 12.4663C33.4747 14.9094 34.6641 18.4985 34.6641 23.0786C34.6641 27.6586 33.4716 31.2477 31.2557 33.6909C29.041 36.1326 25.7923 37.4429 21.6518 37.4429Z" fill="white" stroke="white" stroke-width="0.2"/>
<path d="M97.6365 69.7857L97.4976 69.9271H97.7359H112.781H112.917L112.876 69.7972L93.1448 6.88722L93.1443 6.88591C92.0761 3.63713 88.3184 1.64857 83.373 1.64857C78.8244 1.64857 75.5525 3.55224 74.4606 6.88602L53.8574 69.7832L53.8144 69.9143H53.9524H60.8117H60.8844L60.9068 69.8452L67.6174 49.1886H91.7989L97.6365 69.7857ZM80.1205 11.0753L80.1206 11.0753L80.1216 11.0718C80.1655 10.9186 80.2021 10.8075 80.2362 10.7263C80.2707 10.6445 80.2997 10.6003 80.325 10.5751C80.3681 10.5322 80.4133 10.5271 80.5686 10.5271C80.724 10.5271 80.7699 10.5321 80.813 10.5742C80.8381 10.5988 80.867 10.6417 80.9013 10.7216C80.9353 10.8008 80.9719 10.9093 81.0157 11.059C81.0157 11.0592 81.0158 11.0594 81.0158 11.0595L89.9107 42.56H69.8427L80.1205 11.0753Z" fill="white" stroke="white" stroke-width="0.2"/>
<path d="M164.16 65.1058L164.16 65.1059L164.163 65.1141C165.231 68.3629 168.988 70.3514 173.934 70.3514C178.496 70.3514 181.755 68.4473 182.872 65.0498L182.872 65.0499L182.873 65.0432L198.853 2.1975L198.885 2.07286H198.756H192.112H192.034L192.015 2.14876L177.425 60.9161C177.378 61.068 177.34 61.1785 177.304 61.2595C177.268 61.3415 177.238 61.3863 177.212 61.4121C177.169 61.4553 177.126 61.46 176.978 61.46C176.69 61.46 176.515 61.3768 176.406 61.282C176.298 61.1881 176.245 61.0749 176.216 60.993L163.964 2.15247L163.947 2.07286H163.866H149.465H149.339L149.368 2.19561L153.253 18.8221L142.749 61.0087L142.749 61.0087L142.748 61.014C142.697 61.2789 142.644 61.3761 142.595 61.4167C142.547 61.4555 142.484 61.46 142.328 61.46C142.22 61.46 142.043 61.4474 141.885 61.3783C141.731 61.3111 141.597 61.1928 141.554 60.975L141.555 60.975L141.553 60.9706L127.241 2.14922L127.222 2.07286H127.144H112.73H112.6L112.634 2.19874L129.473 65.0565C129.473 65.0567 129.473 65.0568 129.473 65.0569C130.324 68.3389 134.102 70.3514 139.258 70.3514C144.054 70.3514 147.424 68.3732 148.198 65.0421C148.198 65.0418 148.198 65.0415 148.198 65.0412L156.435 32.3591L164.16 65.1058Z" fill="white" stroke="white" stroke-width="0.2"/>
<path d="M213.903 69.9143H214.003H228.139H228.239V69.8143V44.0843H237.929C245.375 44.0843 251.514 42.0286 255.793 38.371C260.074 34.7121 262.485 29.4571 262.485 23.0786C262.485 16.7001 260.074 11.4451 255.793 7.78613C251.514 4.12854 245.375 2.07286 237.929 2.07286H213.903H213.803V2.17286V69.8143H213.89V69.9143H213.903ZM234.607 37.4429H234.507V37.4557H228.239V8.71429H234.607C238.754 8.71429 242.003 10.0246 244.216 12.4663C246.43 14.9094 247.619 18.4985 247.619 23.0786C247.619 27.6586 246.427 31.2477 244.211 33.6909C241.996 36.1326 238.748 37.4429 234.607 37.4429Z" fill="white" stroke="white" stroke-width="0.2"/>
<path d="M251.483 69.8597L251.511 69.9143H251.572H267.426H267.655L267.499 69.7463L251.646 52.6594L251.646 52.6592L251.632 52.6439C250.312 51.2114 248.632 49.3878 246.053 49.3486L246.053 49.3486H246.052H241.201H241.038L241.112 49.494L251.483 69.8597Z" fill="white" stroke="white" stroke-width="0.2"/>
<path d="M280.171 2.07286H280.071V2.17286V62.1771C280.071 64.7276 280.765 66.6676 282.159 67.9685C283.535 69.2523 285.576 69.8984 288.257 69.914V69.9271H288.357H324.056H324.156V69.8271V63.3857V63.2857H324.056H295.684C295.142 63.2857 294.861 63.154 294.711 62.9785C294.559 62.8 294.521 62.5521 294.521 62.2671V38.1957H321.087H321.187V38.0957V31.6543V31.5543H321.087H294.521V8.71429H323.21H323.31V8.61429V2.17286V2.07286H323.21H280.171Z" fill="white" stroke="white" stroke-width="0.2"/>
<path d="M337.725 61.8388L337.787 61.7658L341.955 56.7901L342.018 56.715L342.095 56.7763L342.815 57.3549L342.815 57.3552C349.064 62.4201 354.739 64.4943 362.433 64.4943C366.276 64.4943 369.487 63.4829 371.734 61.7571C373.98 60.0327 375.269 57.5928 375.269 54.72C375.269 52.8935 374.971 51.0412 373.596 49.2474C372.22 47.4508 369.754 45.7013 365.393 44.1039L365.392 44.1038L355.766 40.5424L355.766 40.5423C350.562 38.6026 346.578 35.8901 343.896 32.4958C341.212 29.1004 339.835 25.0282 339.835 20.3786C339.835 14.6268 342.258 9.742 346.415 6.29694C350.57 2.85297 356.452 0.851427 363.368 0.851427C370.069 0.851427 375.762 2.59256 380.745 6.16732L380.745 6.1674L381.478 6.69454L381.553 6.74873L381.505 6.82788L378.132 12.3436L378.078 12.4324L377.991 12.3746L377.183 11.8346L377.182 11.8344C372.725 8.83547 368.626 7.50571 363.873 7.50571C360.421 7.50571 357.637 8.34753 355.719 9.85645C353.804 11.3632 352.743 13.5418 352.743 16.2386C352.743 18.3394 353.144 20.1748 354.538 21.8593C355.934 23.5479 358.338 25.0959 362.367 26.5977L372.156 30.2361C382.531 34.0394 388.265 41.1417 388.265 50.22C388.265 56.8614 385.864 62.0959 381.36 65.6675C376.862 69.2346 370.279 71.1338 361.928 71.1357L337.725 61.8388ZM337.725 61.8388L337.795 61.9035M337.725 61.8388L337.795 61.9035M337.795 61.9035L338.478 62.5334M337.795 61.9035L338.478 62.5334M338.478 62.5334L338.478 62.5335C344.471 68.0786 352.79 71.1329 361.915 71.1357L338.478 62.5334Z" fill="white" stroke="white" stroke-width="0.2"/>
<path d="M414.694 69.8143V69.9143H414.794H429.043H429.143V69.8143V8.71429H449.053H449.153V8.61429V2.17286V2.07286H449.053H394.86H394.76V2.17286V8.61429V8.71429H394.86H414.694V69.8143Z" fill="white" stroke="white" stroke-width="0.2"/>
</g>
<defs>
<clipPath id="clip0_136_7">
<rect width="450" height="72" fill="white"/>
</clipPath>
</defs>
</svg>
