<svg width="24" height="24" viewBox="0 0 24 24" fill="none" xmlns="http://www.w3.org/2000/svg">
<g opacity="0.69">
<path d="M8.9642 8.62231L9.22467 8.58692L9.34318 8.35228L11.7011 3.68372C11.7333 3.62008 11.7851 3.56826 11.8491 3.53603L11.6242 3.08945L11.8491 3.53603C12.0146 3.45268 12.216 3.5194 12.299 3.68372L14.6569 8.35228L14.7754 8.58692L15.0359 8.62231L20.2106 9.32543C20.2853 9.33559 20.3543 9.37057 20.4065 9.42457C20.5344 9.55701 20.5306 9.76767 20.398 9.89547L16.6452 13.5101L16.453 13.6953L16.4999 13.958L17.4179 19.1081C17.4308 19.1801 17.4195 19.2543 17.3858 19.3193C17.3011 19.4828 17.0991 19.5475 16.9344 19.4624L12.2295 17.0323L11.9975 16.9125L11.7666 17.0344L7.17051 19.461L7.40396 19.9032L7.17051 19.461C7.10645 19.4949 7.03307 19.5071 6.96141 19.4957C6.7783 19.4668 6.65456 19.2956 6.68326 19.1145L7.50182 13.9485L7.54263 13.691L7.35485 13.5101L3.60214 9.89547C3.54806 9.84338 3.51324 9.77472 3.50314 9.70063C3.47838 9.51892 3.60581 9.3504 3.78952 9.32543L8.9642 8.62231Z" fill="#F8F8F8" stroke="#B0B0B0"/>
</g>
</svg>
